<svg width="32" height="35" viewBox="0 0 32 35" fill="none" xmlns="http://www.w3.org/2000/svg">
<g clip-path="url(#clip0_1_2)">
<path d="M15.9995 3C9.8764 3 4.89498 7.98215 4.89498 14.1054C4.89498 19.9996 14.9703 33.7705 15.3993 34.3536L15.7997 34.8985C15.8465 34.9626 15.9211 35 15.9995 35C16.0792 35 16.1532 34.9626 16.2006 34.8985L16.6007 34.3536C17.0299 33.7705 27.105 19.9996 27.105 14.1054C27.105 7.98215 22.1228 3 15.9995 3ZM15.9995 10.1275C18.1934 10.1275 19.9775 11.9116 19.9775 14.1054C19.9775 16.2981 18.1934 18.0834 15.9995 18.0834C13.8069 18.0834 12.0216 16.2981 12.0216 14.1054C12.0216 11.9116 13.8068 10.1275 15.9995 10.1275Z" fill="#0055FF" stroke="#0055FF" stroke-width="0.161735"/>
</g>
<defs>
<clipPath id="clip0_1_2">
<rect width="32" height="35" fill="white"/>
</clipPath>
</defs>
</svg>
